<?xml version="1.0" standalone="no"?>
<!DOCTYPE svg PUBLIC "-//W3C//DTD SVG 20010904//EN"
 "http://www.w3.org/TR/2001/REC-SVG-20010904/DTD/svg10.dtd">
<svg version="1.0" xmlns="http://www.w3.org/2000/svg"
 width="6000.000000pt" height="6000.000000pt" viewBox="0 0 6000.000000 6000.000000"
 preserveAspectRatio="xMidYMid meet">
<metadata>
Created by potrace 1.16, written by Peter Selinger 2001-2019
</metadata>
<g transform="translate(0.000000,6000.000000) scale(0.607903,-0.790514)"
fill="#000000" stroke="none">
<path d="M2393 2655 c-135 -37 -205 -107 -232 -234 -16 -74 1 -167 40 -221 39
-53 100 -82 243 -114 203 -45 243 -77 234 -192 -8 -117 -66 -159 -218 -159
-78 0 -102 4 -135 22 -68 36 -92 70 -100 141 -6 57 -9 62 -31 62 -28 0 -31
-10 -37 -130 -3 -47 -6 -91 -8 -99 -5 -20 94 -60 180 -73 95 -15 244 -5 313
22 75 28 159 104 193 175 48 97 34 247 -28 313 -38 41 -95 63 -226 88 -204 39
-240 60 -255 150 -9 50 9 97 50 136 39 36 74 48 146 48 76 0 128 -15 168 -49
26 -22 32 -35 37 -83 5 -55 7 -58 33 -58 27 0 27 0 33 88 3 48 8 95 12 104 23
58 -266 102 -412 63z"/>
<path d="M3385 2651 c-231 -57 -365 -238 -365 -492 0 -116 13 -180 55 -265 85
-174 257 -255 510 -241 164 10 258 49 355 147 98 100 141 218 141 390 1 252
-119 409 -356 465 -82 20 -253 18 -340 -4z m267 -71 c52 -15 129 -88 161 -153
54 -112 71 -273 43 -420 -37 -191 -136 -280 -308 -279 -187 2 -293 141 -313
408 -7 103 11 224 44 295 49 104 139 159 261 159 41 0 92 -5 112 -10z"/>
<path d="M6607 2660 c-1 -3 -1 -56 1 -117 l3 -113 28 0 c27 0 28 3 37 68 l9
67 55 7 c30 3 90 6 133 7 l77 1 0 -404 0 -405 -22 -15 c-12 -9 -37 -16 -55
-16 -29 0 -33 -3 -33 -27 l0 -28 220 0 220 0 0 28 c0 25 -3 27 -39 27 -23 0
-48 8 -61 18 -23 19 -23 21 -28 343 -3 179 -1 360 2 402 l8 77 67 0 c99 0 192
-11 196 -24 2 -6 6 -37 10 -68 6 -56 7 -58 36 -58 l29 0 0 110 c0 61 0 112 0
115 0 7 -891 12 -893 5z"/>
<path d="M7602 2635 c3 -28 6 -30 51 -33 41 -3 49 -7 58 -30 15 -39 8 -797 -8
-813 -6 -6 -32 -14 -57 -16 -43 -5 -46 -8 -46 -34 l0 -28 225 -1 225 0 0 29
c0 27 -3 29 -51 33 -27 3 -56 11 -62 17 -9 9 -12 115 -12 410 0 441 -1 431 64
431 46 0 64 12 59 39 -3 23 -4 23 -226 24 l-223 2 3 -30z"/>
<path d="M4192 2625 c3 -28 6 -30 50 -33 27 -2 52 -10 60 -19 10 -12 14 -93
16 -362 2 -190 1 -373 -3 -407 -6 -56 -9 -61 -41 -79 -19 -10 -34 -25 -34 -34
0 -14 35 -16 318 -19 174 -1 333 0 353 3 l35 6 12 108 c16 147 17 143 -15 139
-24 -3 -28 -9 -41 -68 -8 -36 -20 -72 -28 -80 -11 -11 -51 -15 -185 -18 l-170
-4 3 399 c2 314 6 403 16 416 8 9 32 17 55 19 39 3 42 5 42 31 l0 29 -223 1
-223 2 3 -30z"/>
<path d="M5060 2628 c0 -25 4 -28 50 -34 28 -4 54 -12 58 -18 4 -6 9 -168 12
-361 l5 -350 31 -55 c36 -64 99 -112 183 -137 41 -13 91 -17 191 -17 160 0
218 18 298 89 89 80 94 103 103 440 11 381 13 394 50 408 20 8 29 18 29 34 0
23 -1 23 -129 23 -71 0 -136 3 -145 6 -12 5 -16 -1 -16 -24 0 -28 3 -30 49
-36 27 -3 55 -14 62 -23 11 -13 14 -80 14 -327 0 -296 -1 -313 -21 -357 -39
-83 -117 -123 -240 -122 -124 1 -200 40 -238 122 -20 44 -21 61 -21 358 0 351
-2 340 74 350 36 5 41 9 41 32 l0 26 -220 0 -220 0 0 -27z"/>
<path d="M6288 2254 c-5 -4 -8 -61 -8 -126 l0 -118 175 0 175 0 0 120 0 120
-93 0 c-52 0 -127 3 -168 6 -41 3 -77 3 -81 -2z"/>
</g>
</svg>